<svg width="777" height="361" viewBox="0 0 777 361" fill="none" xmlns="http://www.w3.org/2000/svg">
<path d="M97.4355 51.6166C97.9559 45.3288 101.646 39.8889 107.31 37.0653C107.31 37.0653 107.31 37.0653 107.311 37.0645C112.973 34.2417 119.54 34.5662 124.875 37.9347C145.108 50.7092 162.373 67.7813 175.446 87.8218C181.784 78.3749 189.278 69.7759 197.833 62.1476C202.685 57.822 209.278 56.4727 215.467 58.5448C221.689 60.6292 226.164 65.7058 227.44 72.1268C230.211 86.0742 230.109 95.0463 229.98 106.406C229.91 112.584 229.831 119.458 230.225 128.358C240.602 106.133 255.747 86.4437 274.691 70.704C279.277 66.8922 285.375 65.7485 291.012 67.6345C296.642 69.5184 300.82 74.1004 302.187 79.8921C308.962 108.594 308.007 138.248 299.491 166.397C301.665 166.445 303.828 166.545 305.972 166.698C312.018 167.127 317.248 170.633 319.959 176.078C322.686 181.552 322.332 187.877 319.011 192.996C305.757 213.43 287.182 229.999 265.293 240.912C249.896 248.589 231.372 253.793 215.912 254.885L96.8746 64.8828C96.8844 60.4609 97.0686 56.0353 97.4355 51.6166Z" fill="#FF6F4D"/>
<path d="M21.2365 202.146C23.1177 196.515 27.6838 192.341 33.445 190.983C57.4499 185.319 82.3349 185.127 106.246 190.186C98.7886 183.979 93.0627 179.785 87.9431 176.033C79.3182 169.715 72.5067 164.724 63.0456 154.134C58.7354 149.311 57.3336 142.499 59.3859 136.357C61.4524 130.173 66.4898 125.725 72.8676 124.451C84.1075 122.211 95.4834 121.402 106.843 122.024C100.213 103.696 96.8335 84.3276 96.875 64.883C137.935 73.8237 173.952 99.4688 196.309 135.058C218.716 170.729 225.782 213.931 215.91 254.884C205.735 266.574 190.431 278.234 175.032 285.912C153.143 296.825 128.732 301.688 104.437 299.976C98.351 299.547 93.0865 296.024 90.3562 290.552C87.6409 285.11 87.9877 278.823 91.2822 273.737C92.4519 271.932 93.674 270.144 94.9439 268.379C67.3845 258.255 43.1572 241.21 24.3269 218.582C20.4918 213.974 19.337 207.831 21.2365 202.146Z" fill="#FF8F71"/>
<path d="M82.7169 223.097C83.429 217.955 88.1741 214.364 93.3193 215.076L196.545 229.38L174.849 185.866L128.13 170.234C123.207 168.587 120.551 163.26 122.198 158.337C123.846 153.413 129.173 150.757 134.096 152.405L162.986 162.071L153.94 143.929C151.681 139.398 153.22 133.766 157.638 131.296C162.356 128.66 168.264 130.521 170.648 135.303L179.824 153.708L189.503 124.782C191.15 119.859 196.477 117.203 201.4 118.85C206.324 120.497 208.98 125.824 207.332 130.748L191.688 177.503L213.38 221.01L264.094 129.933C266.621 125.396 272.346 123.767 276.881 126.293C281.418 128.819 283.048 134.543 280.521 139.08L251.364 191.444L274.192 193.105C279.37 193.481 283.263 197.985 282.885 203.163C282.509 208.344 278.001 212.233 272.827 211.857L241.277 209.56L226.762 235.625C224.702 239.324 224.508 244.037 227.028 248.194L258.445 311.206C260.704 315.737 259.165 321.369 254.747 323.839C250.029 326.475 244.121 324.613 241.737 319.833L210.192 256.564L210.041 256.639C208.243 252.136 204.362 249.447 200.164 248.866L170.645 244.775L153.492 271.355C150.675 275.719 144.857 276.971 140.496 274.155C136.133 271.341 134.879 265.522 137.695 261.16L150.105 241.929L90.738 233.701C85.5948 232.987 82.0031 228.241 82.7169 223.097Z" fill="#EC5334"/>
<path d="M404.19 54.557C404.711 48.2692 408.401 42.8293 414.065 40.0057C414.065 40.0057 414.065 40.0057 414.066 40.0049C419.728 37.182 426.295 37.5066 431.63 40.875C451.863 53.6495 469.128 70.7217 482.201 90.7622C488.539 81.3152 496.033 72.7162 504.588 65.0879C509.44 60.7623 516.033 59.4131 522.222 61.4852C528.444 63.5696 532.919 68.6462 534.195 75.0672C536.966 89.0146 536.864 97.9866 536.735 109.346C536.665 115.524 536.586 122.399 536.98 131.299C547.357 109.074 562.502 89.384 581.446 73.6444C586.032 69.8326 592.13 68.6888 597.767 70.5748C603.397 72.4588 607.575 77.0408 608.942 82.8325C615.717 111.534 614.761 141.188 606.246 169.337C608.42 169.386 610.583 169.485 612.727 169.639C618.773 170.068 624.002 173.574 626.714 179.019C629.441 184.492 629.087 190.817 625.766 195.936C612.512 216.37 593.937 232.939 572.048 243.852C556.651 251.529 538.127 256.734 522.667 257.826L403.63 67.8232C403.639 63.4013 403.823 58.9757 404.19 54.557Z" fill="#FF6F4D"/>
<path d="M327.992 205.086C329.873 199.456 334.439 195.282 340.2 193.924C364.205 188.26 389.09 188.068 413.001 193.126C405.544 186.919 399.818 182.725 394.698 178.974C386.074 172.655 379.262 167.664 369.801 157.074C365.491 152.251 364.089 145.439 366.141 139.298C368.208 133.114 373.245 128.665 379.623 127.392C390.863 125.152 402.239 124.343 413.598 124.965C406.969 106.636 403.589 87.2679 403.63 67.8234C444.691 76.7641 480.708 102.409 503.064 137.999C525.471 173.67 532.538 216.872 522.665 257.824C512.49 269.515 497.186 281.175 481.787 288.852C459.899 299.766 435.488 304.629 411.192 302.916C405.106 302.487 399.842 298.964 397.112 293.492C394.396 288.05 394.743 281.763 398.038 276.677C399.207 274.872 400.429 273.084 401.699 271.319C374.14 261.195 349.913 244.15 331.082 221.522C327.247 216.915 326.092 210.771 327.992 205.086Z" fill="#FF8F71"/>
<path d="M389.473 226.038C390.185 220.895 394.93 217.305 400.075 218.016L503.3 232.321L481.605 188.807L434.886 173.175C429.963 171.527 427.307 166.2 428.954 161.277C430.602 156.354 435.929 153.698 440.852 155.345L469.742 165.011L460.696 146.869C458.437 142.339 459.975 136.706 464.394 134.237C469.112 131.6 475.02 133.462 477.404 138.243L486.58 156.648L496.258 127.722C497.906 122.799 503.233 120.143 508.156 121.79C513.08 123.438 515.736 128.765 514.088 133.688L498.444 180.444L520.135 223.95L570.85 132.873C573.377 128.336 579.102 126.707 583.637 129.233C588.174 131.759 589.804 137.483 587.277 142.02L558.12 194.384L580.948 196.045C586.126 196.422 590.019 200.925 589.641 206.103C589.265 211.284 584.757 215.174 579.583 214.797L548.032 212.5L533.518 238.565C531.458 242.264 531.264 246.977 533.784 251.134L565.201 314.146C567.46 318.677 565.921 324.309 561.502 326.779C556.785 329.415 550.877 327.554 548.493 322.774L516.948 259.504L516.797 259.58C514.998 255.076 511.117 252.387 506.92 251.806L477.401 247.716L460.248 274.295C457.43 278.659 451.612 279.911 447.252 277.096C442.889 274.281 441.635 268.462 444.451 264.1L456.861 244.869L397.494 236.641C392.351 235.928 388.759 231.181 389.473 226.038Z" fill="#EC5334"/>
<path d="M364.845 87.5021C369.437 84.6585 375.06 84.4281 379.887 86.8875C379.887 86.8875 379.887 86.8875 379.888 86.8871C384.713 89.3458 387.834 94.0305 388.232 99.4168C389.744 119.845 386.788 140.419 379.653 159.619C389.382 159.171 399.115 159.949 408.72 161.951C414.168 163.088 418.454 166.938 420.179 172.252C421.913 177.595 420.698 183.259 416.929 187.407C408.742 196.416 402.516 200.914 394.634 206.609C390.347 209.707 385.576 213.154 379.652 217.956C400.23 213.781 421.491 214.176 441.969 219.198C446.927 220.413 450.819 224.027 452.391 228.866C453.962 233.7 452.936 238.908 449.647 242.798C433.346 262.075 412.453 276.517 388.746 284.991C389.82 286.511 390.853 288.051 391.839 289.604C394.623 293.983 394.873 299.367 392.507 304.006C390.128 308.67 385.596 311.646 380.382 311.967C359.571 313.252 338.711 308.906 320.056 299.401C306.933 292.714 293.919 282.618 285.295 272.534L355.43 93.8727C358.48 91.6261 361.619 89.4993 364.845 87.5021Z" fill="#FFB357"/>
<path d="M222.459 111.715C227.291 110.143 232.489 111.159 236.357 114.432C252.478 128.067 265.281 145.094 273.976 164.124C274.45 155.832 274.42 149.756 274.395 144.323C274.351 135.17 274.317 127.941 276.787 116.038C277.911 110.616 281.885 106.183 287.156 104.468C292.464 102.741 298.09 103.942 302.214 107.683C309.479 114.277 315.828 121.693 321.185 129.827C330.423 115.93 342.03 103.742 355.433 93.8705C370.188 126.679 370.88 164.522 357.773 198.028C344.636 231.612 318.505 258.473 285.297 272.532C272.071 271.483 256.255 266.889 243.13 260.202C224.475 250.696 208.698 236.374 197.505 218.784C194.701 214.377 194.445 208.96 196.821 204.295C199.183 199.655 203.685 196.693 208.863 196.37C210.701 196.256 212.553 196.187 214.415 196.162C207.348 172.042 206.741 146.69 212.724 122.21C213.94 117.226 217.58 113.302 222.459 111.715Z" fill="#FFCE71"/>
<path d="M239.347 164.691C243.248 162.562 248.136 163.999 250.266 167.902L292.985 246.22L311.881 209.133L298.849 169.023C297.475 164.796 299.789 160.256 304.016 158.883C308.242 157.509 312.783 159.823 314.156 164.049L322.215 188.852L330.094 173.389C332.061 169.527 336.721 167.718 340.67 169.501C344.887 171.405 346.614 176.418 344.538 180.494L336.545 196.18L361.378 188.111C365.605 186.738 370.145 189.051 371.519 193.278C372.892 197.505 370.579 202.045 366.352 203.418L326.211 216.461L307.318 253.541L395.816 242.064C400.224 241.492 404.261 244.602 404.832 249.01C405.404 253.418 402.295 257.454 397.886 258.026L347.005 264.625L357.486 281.18C359.864 284.935 358.747 289.907 354.991 292.283C351.235 294.663 346.263 293.541 343.887 289.789L329.402 266.908L304.075 270.192C300.481 270.659 297.138 272.925 295.561 276.776L275.086 316.96C273.119 320.821 268.459 322.631 264.51 320.848C260.293 318.944 258.566 313.93 260.642 309.856L281.228 269.452L281.1 269.387C283.283 265.856 283.157 261.816 281.42 258.631L269.203 236.235L242.179 237.966C237.741 238.249 233.917 234.883 233.633 230.448C233.349 226.013 236.714 222.187 241.15 221.904L260.703 220.651L236.135 175.609C234.008 171.707 235.445 166.818 239.347 164.691Z" fill="#FC8A3D"/>
<path d="M671.601 90.4422C676.193 87.5986 681.815 87.3681 686.642 89.8275C686.642 89.8275 686.642 89.8275 686.643 89.8272C691.469 92.2859 694.589 96.9705 694.988 102.357C696.5 122.785 693.543 143.359 686.409 162.559C696.137 162.111 705.871 162.889 715.476 164.891C720.923 166.028 725.209 169.878 726.934 175.192C728.668 180.535 727.454 186.199 723.685 190.347C715.498 199.356 709.272 203.854 701.389 209.549C697.102 212.647 692.331 216.094 686.407 220.897C706.985 216.721 728.247 217.117 748.724 222.138C753.682 223.353 757.574 226.967 759.147 231.806C760.717 236.64 759.692 241.848 756.402 245.738C740.101 265.015 719.208 279.457 695.501 287.931C696.575 289.451 697.608 290.991 698.595 292.544C701.378 296.923 701.628 302.307 699.262 306.946C696.884 311.61 692.351 314.586 687.137 314.907C666.327 316.192 645.467 311.846 626.811 302.341C613.688 295.654 600.674 285.558 592.05 275.474L662.185 96.8128C665.235 94.5662 668.374 92.4394 671.601 90.4422Z" fill="#FFB357"/>
<path d="M529.214 114.655C534.046 113.083 539.244 114.1 543.112 117.373C559.233 131.007 572.037 148.034 580.731 167.064C581.205 158.772 581.176 152.696 581.15 147.263C581.106 138.11 581.073 130.881 583.542 118.978C584.667 113.556 588.64 109.123 593.912 107.408C599.22 105.681 604.846 106.883 608.97 110.623C616.234 117.217 622.584 124.633 627.94 132.767C637.179 118.87 648.786 106.682 662.188 96.8107C676.943 129.619 677.636 167.462 664.529 200.969C651.392 234.552 625.261 261.413 592.053 275.472C578.827 274.423 563.01 269.829 549.886 263.142C531.23 253.636 515.453 239.314 504.26 221.724C501.457 217.317 501.201 211.901 503.576 207.235C505.938 202.596 510.441 199.633 515.618 199.311C517.456 199.196 519.309 199.127 521.17 199.102C514.104 174.982 513.497 149.631 519.479 125.151C520.695 120.166 524.336 116.243 529.214 114.655Z" fill="#FFCE71"/>
<path d="M546.102 167.631C550.003 165.503 554.89 166.939 557.021 170.843L599.739 249.16L618.636 212.073L605.604 171.963C604.23 167.737 606.544 163.196 610.77 161.823C614.997 160.45 619.538 162.763 620.911 166.99L628.97 191.793L636.849 176.329C638.816 172.468 643.476 170.658 647.425 172.441C651.642 174.345 653.369 179.359 651.292 183.434L643.3 199.12L668.133 191.052C672.36 189.678 676.9 191.991 678.274 196.218C679.647 200.445 677.334 204.985 673.107 206.359L632.966 219.401L614.073 256.481L702.571 245.004C706.979 244.433 711.016 247.543 711.587 251.95C712.158 256.358 709.049 260.394 704.641 260.966L653.76 267.565L664.241 284.12C666.619 287.875 665.502 292.847 661.746 295.224C657.99 297.603 653.017 296.481 650.642 292.729L636.157 269.848L610.83 273.133C607.236 273.599 603.893 275.865 602.316 279.716L581.841 319.9C579.874 323.762 575.214 325.571 571.265 323.788C567.048 321.884 565.321 316.871 567.396 312.796L587.983 272.392L587.855 272.327C590.038 268.796 589.912 264.756 588.174 261.571L575.958 239.175L548.933 240.906C544.496 241.189 540.672 237.823 540.388 233.389C540.104 228.954 543.469 225.128 547.905 224.844L567.458 223.591L542.89 178.549C540.763 174.647 542.2 169.759 546.102 167.631Z" fill="#FC8A3D"/>
</svg>
