<svg width="1521" height="971" viewBox="0 0 1521 971" fill="none" xmlns="http://www.w3.org/2000/svg">
<path fill-rule="evenodd" clip-rule="evenodd" d="M222.801 247.996L222.8 247.993C222.595 247.57 217.343 236.705 227.383 229.095C237.45 221.465 259.887 222.507 259.887 222.507C259.887 222.507 252.819 243.828 242.089 250.491C231.386 257.138 223.124 248.34 222.803 247.998L222.801 247.996Z" fill="#FBD38D"/>
<path d="M248.972 219.96C249.873 219.952 250.636 219.957 251.225 219.967C251.023 220.52 250.754 221.234 250.423 222.072C249.601 224.155 248.395 226.999 246.858 230.047C243.755 236.198 239.409 242.966 234.3 246.139C229.267 249.264 224.872 248.749 221.671 247.437C218.77 246.248 216.842 244.395 216.375 243.918C216.098 243.312 215.059 240.848 214.988 237.713C214.91 234.255 216.005 229.967 220.726 226.388C225.519 222.755 233.394 221.123 240.249 220.432C243.645 220.089 246.733 219.982 248.972 219.96Z" stroke="#F6AD55" stroke-width="2"/>
<path fill-rule="evenodd" clip-rule="evenodd" d="M71.6306 212.047L71.6276 212.049C71.2109 212.264 60.4862 217.799 52.616 207.961C44.7256 198.098 45.1803 175.641 45.1803 175.641C45.1803 175.641 66.6783 182.148 73.6206 192.7C80.5451 203.226 71.9664 211.715 71.6331 212.045L71.6306 212.047Z" fill="#FBD38D"/>
<path d="M42.92 186.619C42.8878 185.718 42.8732 184.955 42.8672 184.367C43.4254 184.554 44.1463 184.804 44.9932 185.113C47.0968 185.88 49.9716 187.012 53.0584 188.469C59.289 191.409 66.1677 195.576 69.4733 200.601C72.7294 205.55 72.3294 209.958 71.1017 213.191C69.989 216.123 68.1869 218.099 67.7231 218.578C67.124 218.871 64.6878 219.974 61.5564 220.127C58.1015 220.295 53.7857 219.313 50.085 214.687C46.3279 209.991 44.4903 202.161 43.6193 195.327C43.1878 191.941 42.9999 188.857 42.92 186.619Z" stroke="#F6AD55" stroke-width="2"/>
<path fill-rule="evenodd" clip-rule="evenodd" d="M21.7106 547.512L21.7137 547.513C22.1538 547.675 33.4806 551.842 31.5443 564.291C29.6029 576.772 12.739 591.608 12.739 591.608C12.739 591.608 3.01266 571.362 6.10236 559.115C9.18417 546.899 21.2388 547.488 21.7072 547.511L21.7106 547.512Z" fill="#FBD38D"/>
<path d="M22.3599 585.858C21.7174 586.49 21.1649 587.017 20.7348 587.419C20.4961 586.88 20.1931 586.18 19.8487 585.347C18.9934 583.278 17.8856 580.394 16.8741 577.134C14.8326 570.554 13.2578 562.667 14.729 556.835C16.1781 551.091 19.6981 548.408 22.9117 547.128C25.8245 545.969 28.4989 545.962 29.1655 545.98C29.7863 546.224 32.2456 547.275 34.4736 549.481C36.9317 551.914 39.1236 555.759 38.2131 561.613C37.2887 567.556 32.7575 574.201 28.3072 579.46C26.1025 582.065 23.9558 584.287 22.3599 585.858Z" stroke="#F6AD55" stroke-width="2"/>
<path fill-rule="evenodd" clip-rule="evenodd" d="M1364.4 861.512L1364.39 861.513C1363.95 861.675 1352.63 865.842 1354.56 878.291C1356.5 890.772 1373.37 905.608 1373.37 905.608C1373.37 905.608 1383.09 885.362 1380 873.115C1376.92 860.899 1364.87 861.488 1364.4 861.511L1364.4 861.512Z" fill="#FBD38D"/>
<path d="M1363.75 899.858C1364.39 900.49 1364.94 901.017 1365.37 901.419C1365.61 900.88 1365.91 900.18 1366.26 899.347C1367.11 897.278 1368.22 894.394 1369.23 891.134C1371.27 884.554 1372.85 876.667 1371.38 870.835C1369.93 865.091 1366.41 862.408 1363.19 861.128C1360.28 859.969 1357.61 859.962 1356.94 859.98C1356.32 860.224 1353.86 861.275 1351.63 863.481C1349.17 865.914 1346.98 869.759 1347.89 875.613C1348.82 881.556 1353.35 888.201 1357.8 893.46C1360 896.065 1362.15 898.287 1363.75 899.858Z" stroke="#F6AD55" stroke-width="2"/>
<path fill-rule="evenodd" clip-rule="evenodd" d="M238.396 898.512L238.393 898.513C237.953 898.675 226.626 902.842 228.562 915.291C230.504 927.772 247.367 942.608 247.367 942.608C247.367 942.608 257.094 922.362 254.004 910.115C250.922 897.899 238.868 898.488 238.399 898.511L238.396 898.512Z" fill="#FBD38D"/>
<path d="M237.195 898.128C234.282 896.969 231.608 896.962 230.941 896.98C230.32 897.224 227.861 898.275 225.633 900.481C223.175 902.914 220.983 906.759 221.894 912.613C222.818 918.556 227.349 925.201 231.799 930.46C234.004 933.065 236.151 935.287 237.747 936.858C238.389 937.49 238.942 938.017 239.372 938.419C239.611 937.88 239.914 937.18 240.258 936.347C241.113 934.278 242.221 931.394 243.233 928.134C245.274 921.554 246.849 913.667 245.378 907.835C243.929 902.091 240.409 899.408 237.195 898.128Z" stroke="#F6AD55" stroke-width="2"/>
<path fill-rule="evenodd" clip-rule="evenodd" d="M413.396 850.084L413.393 850.083C412.953 849.921 401.626 845.754 403.562 833.304C405.504 820.824 422.367 805.987 422.367 805.987C422.367 805.987 432.094 826.233 429.004 838.481C425.922 850.697 413.868 850.107 413.399 850.084L413.396 850.084Z" fill="#FBD38D"/>
<path d="M412.747 811.737C413.389 811.105 413.942 810.579 414.372 810.177C414.611 810.715 414.914 811.415 415.258 812.248C416.113 814.318 417.221 817.202 418.233 820.462C420.274 827.042 421.849 834.929 420.378 840.76C418.929 846.504 415.409 849.187 412.195 850.467C409.282 851.627 406.608 851.633 405.941 851.615C405.32 851.371 402.861 850.321 400.633 848.115C398.175 845.681 395.983 841.836 396.894 835.982C397.818 830.039 402.349 823.395 406.799 818.136C409.004 815.53 411.151 813.308 412.747 811.737Z" stroke="#F6AD55" stroke-width="2"/>
<path fill-rule="evenodd" clip-rule="evenodd" d="M30.396 874.512L30.3928 874.513C29.9527 874.675 18.626 878.842 20.5623 891.291C22.5036 903.772 39.3675 918.608 39.3675 918.608C39.3675 918.608 49.0939 898.362 46.0042 886.115C42.9224 873.899 30.8678 874.488 30.3994 874.511L30.396 874.512Z" fill="#FBD38D"/>
<path d="M29.7467 912.858C30.3892 913.49 30.9417 914.017 31.3718 914.419C31.6105 913.88 31.9135 913.18 32.2579 912.347C33.1132 910.278 34.221 907.394 35.2324 904.134C37.274 897.554 38.8488 889.667 37.3776 883.835C35.9285 878.091 32.4084 875.408 29.1948 874.128C26.2821 872.969 23.6077 872.962 22.941 872.98C22.3203 873.224 19.861 874.275 17.633 876.481C15.1748 878.914 12.9829 882.759 13.8935 888.613C14.8178 894.556 19.349 901.201 23.7993 906.46C26.0041 909.065 28.1508 911.287 29.7467 912.858Z" stroke="#F6AD55" stroke-width="2"/>
<path fill-rule="evenodd" clip-rule="evenodd" d="M1429.71 66.5114L1429.71 66.5126C1430.15 66.6745 1441.48 70.8418 1439.54 83.2909C1437.6 95.7718 1420.74 110.608 1420.74 110.608C1420.74 110.608 1411.01 90.3619 1414.1 78.1146C1417.18 65.8987 1429.24 66.4883 1429.71 66.5113L1429.71 66.5114Z" fill="#FBD38D"/>
<path d="M1430.36 104.858C1429.72 105.49 1429.16 106.017 1428.73 106.419C1428.5 105.88 1428.19 105.18 1427.85 104.347C1426.99 102.278 1425.89 99.3936 1424.87 96.1337C1422.83 89.5536 1421.26 81.6668 1422.73 75.8352C1424.18 70.091 1427.7 67.408 1430.91 66.1284C1433.82 64.9685 1436.5 64.9622 1437.17 64.9804C1437.79 65.2242 1440.25 66.2749 1442.47 68.4807C1444.93 70.9142 1447.12 74.7593 1446.21 80.6131C1445.29 86.556 1440.76 93.2005 1436.31 98.4598C1434.1 101.065 1431.96 103.287 1430.36 104.858Z" stroke="#F6AD55" stroke-width="2"/>
<path fill-rule="evenodd" clip-rule="evenodd" d="M243.711 624.512L243.714 624.513C244.154 624.675 255.481 628.842 253.544 641.291C251.603 653.772 234.739 668.608 234.739 668.608C234.739 668.608 225.013 648.362 228.102 636.115C231.184 623.899 243.239 624.488 243.707 624.511L243.711 624.512Z" fill="#FBD38D"/>
<path d="M244.911 624.128C247.824 622.969 250.499 622.962 251.165 622.98C251.786 623.224 254.245 624.275 256.473 626.481C258.931 628.914 261.123 632.759 260.213 638.613C259.289 644.556 254.757 651.201 250.307 656.46C248.102 659.065 245.956 661.287 244.36 662.858C243.717 663.49 243.165 664.017 242.735 664.419C242.496 663.88 242.193 663.18 241.848 662.347C240.993 660.278 239.885 657.394 238.874 654.134C236.832 647.554 235.258 639.667 236.729 633.835C238.178 628.091 241.698 625.408 244.911 624.128Z" stroke="#F6AD55" stroke-width="2"/>
<path fill-rule="evenodd" clip-rule="evenodd" d="M731.521 519.605L731.523 519.603C731.85 519.266 740.264 510.614 750.849 517.446C761.462 524.296 768.156 545.737 768.156 545.737C768.156 545.737 745.704 546.387 735.772 538.583C725.866 530.799 731.308 520.027 731.519 519.608L731.521 519.605Z" fill="#FBD38D"/>
<path d="M766.816 534.609C767.133 535.453 767.389 536.172 767.581 536.728C766.992 536.727 766.229 536.719 765.328 536.695C763.09 536.635 760.004 536.474 756.615 536.072C749.773 535.261 741.928 533.491 737.199 529.775C732.541 526.115 731.521 521.808 731.659 518.352C731.785 515.219 732.867 512.774 733.154 512.172C733.629 511.704 735.59 509.885 738.511 508.746C741.734 507.491 746.138 507.052 751.116 510.265C756.169 513.527 760.396 520.369 763.39 526.573C764.874 529.647 766.03 532.512 766.816 534.609Z" stroke="#F6AD55" stroke-width="2"/>
<path fill-rule="evenodd" clip-rule="evenodd" d="M452.448 623.501L452.446 623.499C452.152 623.133 444.589 613.728 452.661 604.054C460.753 594.356 482.849 590.324 482.849 590.324C482.849 590.324 480.759 612.688 471.803 621.594C462.87 630.478 452.84 623.764 452.451 623.503L452.448 623.501Z" fill="#FBD38D"/>
<path d="M471.641 590.298C472.518 590.086 473.262 589.92 473.838 589.797C473.766 590.381 473.665 591.137 473.531 592.029C473.198 594.243 472.662 597.286 471.85 600.601C470.211 607.293 467.499 614.864 463.234 619.105C459.034 623.283 454.635 623.769 451.221 623.211C448.127 622.705 445.831 621.333 445.269 620.974C444.863 620.446 443.296 618.278 442.522 615.24C441.668 611.888 441.77 607.463 445.565 602.915C449.419 598.297 456.725 594.935 463.248 592.719C466.48 591.621 469.464 590.822 471.641 590.298Z" stroke="#F6AD55" stroke-width="2"/>
<path fill-rule="evenodd" clip-rule="evenodd" d="M993.448 376.689L993.446 376.687C993.152 376.321 985.589 366.915 993.661 357.242C1001.75 347.543 1023.85 343.512 1023.85 343.512C1023.85 343.512 1021.76 365.876 1012.8 374.782C1003.87 383.666 993.84 376.952 993.451 376.691L993.448 376.689Z" fill="#FBD38D"/>
<path d="M1012.64 343.485C1013.52 343.274 1014.26 343.108 1014.84 342.985C1014.77 343.569 1014.66 344.325 1014.53 345.217C1014.2 347.431 1013.66 350.474 1012.85 353.789C1011.21 360.481 1008.5 368.052 1004.23 372.293C1000.03 376.471 995.635 376.957 992.221 376.399C989.127 375.893 986.831 374.521 986.269 374.162C985.863 373.633 984.296 371.466 983.522 368.428C982.668 365.076 982.77 360.651 986.565 356.102C990.419 351.484 997.725 348.123 1004.25 345.907C1007.48 344.809 1010.46 344.01 1012.64 343.485Z" stroke="#F6AD55" stroke-width="2"/>
<path fill-rule="evenodd" clip-rule="evenodd" d="M1075.99 641.689L1075.99 641.687C1076.28 641.321 1083.84 631.916 1075.77 622.242C1067.68 612.544 1045.58 608.512 1045.58 608.512C1045.58 608.512 1047.68 630.876 1056.63 639.782C1065.56 648.666 1075.59 641.952 1075.98 641.691L1075.99 641.689Z" fill="#FBD38D"/>
<path d="M1056.79 608.486C1055.92 608.274 1055.17 608.108 1054.6 607.985C1054.67 608.569 1054.77 609.325 1054.9 610.217C1055.24 612.431 1055.77 615.474 1056.58 618.789C1058.22 625.481 1060.94 633.052 1065.2 637.293C1069.4 641.471 1073.8 641.957 1077.21 641.399C1080.31 640.893 1082.6 639.521 1083.16 639.162C1083.57 638.634 1085.14 636.466 1085.91 633.428C1086.77 630.076 1086.66 625.651 1082.87 621.103C1079.02 616.485 1071.71 613.123 1065.19 610.907C1061.95 609.809 1058.97 609.01 1056.79 608.486Z" stroke="#F6AD55" stroke-width="2"/>
<path fill-rule="evenodd" clip-rule="evenodd" d="M420.986 395.689L420.988 395.687C421.282 395.321 428.845 385.915 420.773 376.242C412.681 366.543 390.585 362.512 390.585 362.512C390.585 362.512 392.675 384.876 401.631 393.782C410.565 402.666 420.594 395.952 420.983 395.691L420.986 395.689Z" fill="#FBD38D"/>
<path d="M422.213 395.399C425.307 394.893 427.603 393.521 428.165 393.162C428.571 392.633 430.138 390.466 430.912 387.428C431.766 384.076 431.664 379.651 427.869 375.102C424.016 370.484 416.709 367.123 410.186 364.907C406.954 363.809 403.97 363.01 401.793 362.485C400.916 362.274 400.172 362.108 399.596 361.985C399.669 362.569 399.769 363.325 399.903 364.217C400.236 366.431 400.772 369.474 401.584 372.789C403.223 379.481 405.935 387.052 410.2 391.293C414.4 395.471 418.799 395.957 422.213 395.399Z" stroke="#F6AD55" stroke-width="2"/>
<path fill-rule="evenodd" clip-rule="evenodd" d="M491.986 85.6893L491.988 85.6866C492.282 85.3212 499.845 75.9154 491.773 66.2418C483.681 56.5434 461.585 52.5118 461.585 52.5118C461.585 52.5118 463.675 74.8756 472.631 83.7822C481.565 92.6661 491.594 85.9521 491.983 85.6912L491.986 85.6893Z" fill="#FBD38D"/>
<path d="M472.793 52.4854C471.916 52.2743 471.172 52.1079 470.596 51.9846C470.669 52.569 470.769 53.3252 470.903 54.2167C471.236 56.431 471.772 59.4738 472.584 62.7891C474.223 69.4808 476.935 77.0522 481.2 81.2931C485.4 85.4705 489.799 85.9573 493.213 85.3991C496.307 84.8931 498.603 83.5211 499.165 83.1621C499.571 82.6335 501.138 80.4662 501.912 77.428C502.766 74.076 502.664 69.6512 498.869 65.1024C495.016 60.4845 487.709 57.1228 481.186 54.9067C477.954 53.8088 474.97 53.0099 472.793 52.4854Z" stroke="#F6AD55" stroke-width="2"/>
<path fill-rule="evenodd" clip-rule="evenodd" d="M1472.03 354.374L1472.03 354.371C1472.21 353.938 1476.87 342.804 1489.22 345.281C1501.6 347.765 1515.69 365.26 1515.69 365.26C1515.69 365.26 1495.04 374.094 1482.94 370.473C1470.87 366.861 1471.98 354.844 1472.03 354.377L1472.03 354.374Z" fill="#FBD38D"/>
<path d="M1510.36 355.398C1510.97 356.067 1511.47 356.642 1511.85 357.089C1511.3 357.304 1510.59 357.577 1509.74 357.884C1507.64 358.648 1504.71 359.629 1501.41 360.498C1494.75 362.25 1486.8 363.48 1481.04 361.755C1475.36 360.057 1472.83 356.423 1471.7 353.157C1470.66 350.196 1470.77 347.524 1470.82 346.859C1471.09 346.25 1472.25 343.838 1474.55 341.709C1477.09 339.359 1481.03 337.337 1486.83 338.502C1492.73 339.685 1499.17 344.501 1504.23 349.177C1506.74 351.493 1508.86 353.735 1510.36 355.398Z" stroke="#F6AD55" stroke-width="2"/>
<path fill-rule="evenodd" clip-rule="evenodd" d="M652.179 782.942L652.182 782.944C652.577 783.197 662.733 789.717 658.148 801.452C653.551 813.217 633.876 824.051 633.876 824.051C633.876 824.051 628.762 802.18 634.43 790.892C640.082 779.632 651.724 782.817 652.176 782.941L652.179 782.942Z" fill="#FBD38D"/>
<path d="M644.513 820.52C643.749 820.998 643.096 821.392 642.589 821.692C642.472 821.115 642.328 820.365 642.172 819.478C641.785 817.272 641.328 814.216 641.046 810.815C640.477 803.949 640.647 795.908 643.345 790.533C646.003 785.239 650.02 783.381 653.435 782.828C656.53 782.326 659.142 782.898 659.789 783.06C660.342 783.433 662.516 784.991 664.213 787.627C666.087 790.534 667.394 794.763 665.238 800.281C663.05 805.883 657.188 811.389 651.705 815.56C648.988 817.627 646.411 819.332 644.513 820.52Z" stroke="#F6AD55" stroke-width="2"/>
<path fill-rule="evenodd" clip-rule="evenodd" d="M969.898 920.942L969.895 920.944C969.5 921.197 959.344 927.717 963.929 939.452C968.526 951.217 988.201 962.051 988.201 962.051C988.201 962.051 993.315 940.18 987.648 928.892C981.995 917.632 970.353 920.817 969.901 920.941L969.898 920.942Z" fill="#FBD38D"/>
<path d="M977.564 958.52C978.328 958.998 978.981 959.392 979.488 959.692C979.605 959.115 979.749 958.365 979.905 957.478C980.292 955.272 980.749 952.216 981.031 948.815C981.6 941.949 981.431 933.908 978.732 928.533C976.074 923.239 972.057 921.381 968.642 920.828C965.548 920.326 962.935 920.898 962.288 921.06C961.735 921.433 959.561 922.991 957.864 925.627C955.991 928.534 954.683 932.763 956.839 938.281C959.027 943.883 964.889 949.389 970.373 953.56C973.089 955.627 975.666 957.332 977.564 958.52Z" stroke="#F6AD55" stroke-width="2"/>
<path fill-rule="evenodd" clip-rule="evenodd" d="M1419.3 742.9L1419.3 742.897C1419.34 742.43 1420.38 730.406 1432.9 728.999C1445.45 727.59 1464.2 739.957 1464.2 739.957C1464.2 739.957 1447.23 754.666 1434.6 754.907C1422 755.147 1419.4 743.362 1419.3 742.904L1419.3 742.9Z" fill="#FBD38D"/>
<path d="M1456.12 732.188C1456.9 732.641 1457.56 733.036 1458.06 733.345C1457.6 733.717 1457.01 734.193 1456.29 734.745C1454.52 736.114 1452.03 737.942 1449.15 739.775C1443.34 743.475 1436.14 747.069 1430.13 747.184C1424.21 747.297 1420.69 744.606 1418.61 741.842C1416.73 739.337 1416.02 736.759 1415.86 736.111C1415.93 735.448 1416.3 732.799 1417.84 730.069C1419.54 727.057 1422.68 723.931 1428.56 723.27C1434.54 722.599 1442.14 725.222 1448.39 728.133C1451.48 729.574 1454.19 731.061 1456.12 732.188Z" stroke="#F6AD55" stroke-width="2"/>
<path fill-rule="evenodd" clip-rule="evenodd" d="M1369.32 476.799L1369.32 476.797C1368.89 476.6 1357.95 471.509 1360.91 459.263C1363.88 446.985 1381.91 433.597 1381.91 433.597C1381.91 433.597 1389.93 454.579 1385.84 466.528C1381.75 478.447 1369.79 476.861 1369.32 476.799L1369.32 476.799Z" fill="#FBD38D"/>
<path d="M1371.85 438.53C1372.54 437.953 1373.14 437.475 1373.6 437.109C1373.79 437.666 1374.03 438.388 1374.31 439.247C1374.99 441.38 1375.86 444.346 1376.59 447.679C1378.08 454.405 1379 462.395 1377.05 468.085C1375.13 473.69 1371.4 476.072 1368.09 477.081C1365.09 477.996 1362.43 477.781 1361.76 477.707C1361.17 477.413 1358.8 476.162 1356.76 473.779C1354.52 471.151 1352.65 467.137 1354.04 461.379C1355.46 455.533 1360.52 449.287 1365.39 444.414C1367.8 442 1370.13 439.963 1371.85 438.53Z" stroke="#F6AD55" stroke-width="2"/>
<path fill-rule="evenodd" clip-rule="evenodd" d="M805.242 177.746L805.239 177.746C804.779 177.836 792.933 180.15 788.131 168.502C783.316 156.825 790.036 135.393 790.036 135.393C790.036 135.393 808.854 147.656 812.567 159.729C816.269 171.771 805.658 177.521 805.245 177.744L805.242 177.746Z" fill="#FBD38D"/>
<path d="M784.794 145.3C785.015 144.426 785.215 143.689 785.374 143.122C785.857 143.459 786.479 143.9 787.206 144.434C789.011 145.759 791.454 147.65 794.01 149.912C799.169 154.479 804.607 160.404 806.374 166.153C808.115 171.815 806.498 175.935 804.414 178.696C802.526 181.199 800.243 182.592 799.663 182.922C799.006 183.036 796.359 183.413 793.31 182.683C789.946 181.878 786.077 179.728 783.819 174.251C781.526 168.691 781.953 160.66 783.029 153.855C783.562 150.484 784.245 147.47 784.794 145.3Z" stroke="#F6AD55" stroke-width="2"/>
<path fill-rule="evenodd" clip-rule="evenodd" d="M1191.32 32.751L1191.32 32.7537C1191.04 33.1285 1183.78 42.7737 1172.42 37.3317C1161.03 31.8758 1151.68 11.4516 1151.68 11.4516C1151.68 11.4516 1173.87 7.9728 1184.71 14.461C1195.52 20.9327 1191.48 32.3059 1191.32 32.7478L1191.32 32.751Z" fill="#FBD38D"/>
<path d="M1154.41 22.3214C1153.99 21.5239 1153.65 20.8433 1153.39 20.3155C1153.97 20.2421 1154.73 20.1537 1155.63 20.0641C1157.85 19.8414 1160.93 19.6118 1164.35 19.5828C1171.24 19.5242 1179.24 20.2892 1184.4 23.3786C1189.49 26.4217 1191.04 30.5656 1191.34 34.0116C1191.61 37.1351 1190.85 39.6978 1190.64 40.3309C1190.22 40.8551 1188.51 42.9072 1185.76 44.4051C1182.72 46.0576 1178.4 47.0483 1173.06 44.4894C1167.64 41.8915 1162.58 35.6376 1158.83 29.8604C1156.97 26.9983 1155.46 24.3023 1154.41 22.3214Z" stroke="#F6AD55" stroke-width="2"/>
</svg>
