<svg width="1600" height="600" viewBox="0 0 1600 600" fill="none" xmlns="http://www.w3.org/2000/svg">
<path d="M243.24 15.7451C242.662 23.9673 240.303 31.8338 237.958 39.7321C234.535 51.2578 230.977 63.3865 223.819 73.2296C222.72 74.7406 209.805 90.8545 207.049 85.526C205.457 82.4483 208.003 76.2896 208.944 73.4829C212.093 64.0897 216.294 54.5084 223.887 47.8925C234.486 38.657 249.978 33.7094 263.721 35.7491" stroke="#B089F1" stroke-width="3" stroke-linecap="round"/>
<path d="M1396.79 516.634C1398.08 512.615 1400.32 510.097 1402.55 507.551C1405.8 503.835 1409.21 499.893 1414.32 499.828C1415.1 499.818 1424.13 500.589 1425.02 505.491C1425.53 508.322 1423.4 509.781 1422.55 510.607C1419.69 513.371 1416.24 515.464 1411.27 513.467C1404.33 510.679 1395.21 501.984 1387.88 490.797" stroke="#89F193" stroke-width="3" stroke-linecap="round"/>
<path d="M863.082 32.3807C858.861 32.4273 855.763 31.1074 852.641 29.8C848.084 27.8922 843.267 25.9172 841.582 21.0889C841.323 20.3477 839.19 11.5388 843.557 9.14347C846.079 7.75994 848.14 9.32156 849.194 9.86729C852.72 11.6937 855.801 14.3042 855.484 19.6509C855.041 27.1145 849.69 38.5261 841.407 49.0272" stroke="#89D2F1" stroke-width="3" stroke-linecap="round"/>
<path d="M1056.89 445.016C1053.57 451.409 1050.49 458.638 1050.7 465.966C1050.89 472.309 1058.43 473.448 1063.38 474.635C1066.81 475.457 1077.63 476.281 1079.25 480.392C1080.74 484.173 1074.13 489.89 1072.85 493.025C1067.06 507.258 1111.29 504.755 1103.06 517.324C1100.62 521.052 1097.62 523.432 1100.81 527.794C1103.71 531.768 1108.77 533.818 1113.19 535.694" stroke="#484848" stroke-width="2" stroke-linecap="round"/>
<path fill-rule="evenodd" clip-rule="evenodd" d="M1376.12 74.781C1376.95 74.8634 1377.55 75.5985 1377.46 76.4228C1377.22 78.8191 1376.63 81.1353 1375.99 83.3553C1375.79 84.049 1375.59 84.7268 1375.39 85.3954L1375.39 85.3957C1374.93 86.9086 1374.49 88.3745 1374.13 89.8722L1374 90.3995C1372.48 96.7021 1370.93 103.15 1370.68 109.426C1370.65 110.254 1369.95 110.899 1369.12 110.866C1368.3 110.834 1367.65 110.137 1367.68 109.309C1367.94 102.729 1369.56 96.0251 1371.06 89.8091L1371.21 89.169C1371.59 87.5874 1372.07 85.9919 1372.54 84.4421L1372.54 84.4415C1372.74 83.7919 1372.93 83.1504 1373.11 82.5213C1373.74 80.3473 1374.27 78.2422 1374.48 76.1243C1374.56 75.3 1375.3 74.6986 1376.12 74.781ZM1370.73 119.692C1370.86 119.757 1370.98 119.824 1371.11 119.892C1371.43 120.075 1371.79 120.292 1372.11 120.536C1372.4 120.764 1372.78 121.097 1373.03 121.54C1373.48 122.326 1374.43 123.12 1375.76 124.06C1375.99 124.227 1376.24 124.399 1376.5 124.576C1377.55 125.304 1378.72 126.118 1379.58 126.975C1380.43 127.829 1381.37 128.586 1382.38 129.4L1382.38 129.4L1382.38 129.4L1382.38 129.4L1382.38 129.4L1382.38 129.4L1382.38 129.4L1382.38 129.402C1382.65 129.616 1382.92 129.834 1383.19 130.058C1384.48 131.106 1385.82 132.275 1386.93 133.729L1387.04 133.881C1389.63 137.293 1392.11 140.569 1393.9 144.748C1395.65 148.857 1395.51 152.977 1394.6 157.051C1393.92 160.075 1392.95 162.561 1391.33 164.6C1389.71 166.653 1387.52 168.132 1384.59 169.31C1380.41 170.996 1375.54 171.282 1370.81 170.956C1366.07 170.628 1361.34 169.671 1357.39 168.768C1350.08 167.094 1343.61 164.954 1337.67 159.943C1331.42 154.673 1326.49 147.882 1326.98 139.031C1327.2 135.019 1329.16 131.126 1331.74 127.852C1334.32 124.564 1337.62 121.769 1340.76 119.95C1343.27 118.493 1346.18 117.768 1349.04 117.372C1351.65 117.012 1354.31 116.914 1356.68 116.827L1356.68 116.827C1356.91 116.819 1357.14 116.811 1357.36 116.802C1359.11 116.736 1360.9 116.686 1362.71 116.702C1362.79 116.629 1362.89 116.565 1363 116.512C1363.57 116.225 1364.24 116.339 1364.68 116.747C1366.4 116.814 1368.13 116.957 1369.84 117.219C1370.65 117.345 1371.22 118.111 1371.09 118.93C1371.05 119.224 1370.92 119.484 1370.73 119.692ZM1363.54 119.714C1361.53 119.672 1359.51 119.723 1357.48 119.8C1357.25 119.808 1357.03 119.817 1356.8 119.825C1354.41 119.913 1351.9 120.005 1349.45 120.344C1346.78 120.714 1344.3 121.365 1342.26 122.545C1339.46 124.174 1336.44 126.718 1334.1 129.706C1331.74 132.706 1330.15 136.022 1329.97 139.198C1329.56 146.686 1333.68 152.65 1339.6 157.65C1345 162.2 1350.91 164.207 1358.06 165.843C1361.97 166.737 1366.51 167.651 1371.02 167.963C1375.54 168.275 1379.89 167.97 1383.47 166.527C1386.06 165.485 1387.76 164.273 1388.98 162.736C1390.21 161.186 1391.04 159.184 1391.67 156.394C1392.5 152.678 1392.56 149.253 1391.14 145.926C1389.5 142.089 1387.21 139.067 1384.56 135.571L1384.56 135.571L1384.56 135.571L1384.54 135.542C1383.66 134.388 1382.55 133.406 1381.29 132.381C1381.06 132.187 1380.81 131.991 1380.56 131.79L1380.56 131.787L1380.56 131.786C1379.53 130.961 1378.44 130.076 1377.46 129.097C1376.81 128.45 1375.94 127.842 1374.92 127.133L1374.92 127.133L1374.92 127.133C1374.63 126.933 1374.33 126.726 1374.02 126.507C1372.75 125.608 1371.27 124.482 1370.44 123.058L1370.44 123.055L1370.44 123.055C1370.43 123.041 1370.38 122.993 1370.28 122.915C1370.12 122.795 1369.91 122.658 1369.65 122.512C1369.25 122.292 1368.86 122.106 1368.5 121.935L1368.5 121.935L1368.5 121.935C1368.36 121.871 1368.23 121.808 1368.1 121.747C1367.9 121.649 1367.54 121.503 1367.02 121.298L1366.89 121.247L1366.89 121.247L1366.89 121.246C1366.44 121.064 1365.9 120.853 1365.39 120.632C1364.83 120.392 1364.24 120.122 1363.75 119.839C1363.68 119.799 1363.61 119.758 1363.54 119.714ZM1429.84 123.344C1430.53 122.885 1430.71 121.953 1430.26 121.264C1429.8 120.575 1428.86 120.388 1428.18 120.848C1425.52 122.617 1422.52 123.75 1419.37 124.938C1418.43 125.291 1417.48 125.649 1416.53 126.03C1410.2 128.546 1404.9 131.414 1399.62 135.792C1398.98 136.321 1398.9 137.267 1399.43 137.904C1399.96 138.541 1400.9 138.629 1401.54 138.1C1406.51 133.969 1411.53 131.247 1417.64 128.817C1418.47 128.484 1419.34 128.157 1420.23 127.823C1423.43 126.617 1426.87 125.323 1429.84 123.344ZM1396.18 172.475C1396.95 172.155 1397.82 172.515 1398.15 173.279C1400.52 178.937 1402.94 184.277 1406.18 189.364C1406.3 189.55 1406.42 189.737 1406.54 189.925C1408.25 192.602 1410.01 195.363 1411.3 198.456C1411.36 198.607 1411.44 198.771 1411.54 198.975L1411.55 198.997L1411.55 198.997L1411.55 198.998C1411.64 199.187 1411.74 199.409 1411.84 199.637C1412.03 200.093 1412.26 200.73 1412.26 201.437C1412.26 202.265 1411.59 202.937 1410.76 202.937C1409.93 202.937 1409.26 202.265 1409.26 201.437C1409.26 201.349 1409.23 201.165 1409.08 200.809C1409.01 200.64 1408.92 200.467 1408.83 200.262L1408.82 200.257L1408.82 200.256C1408.73 200.064 1408.62 199.837 1408.53 199.609C1407.35 196.767 1405.72 194.213 1403.98 191.487L1403.65 190.975C1400.27 185.667 1397.76 180.135 1395.38 174.438C1395.06 173.674 1395.42 172.795 1396.18 172.475ZM1349.79 182.904C1350.09 182.135 1349.72 181.262 1348.95 180.952C1348.18 180.643 1347.31 181.016 1347 181.784C1344.74 187.396 1342.59 192.901 1340.83 198.766C1340.76 198.999 1340.66 199.439 1340.55 199.905L1340.5 200.146C1340.36 200.74 1340.2 201.429 1340.02 202.074C1339.86 202.692 1339.7 203.207 1339.56 203.546C1339.32 203.687 1339.12 203.896 1338.99 204.16C1338.62 204.901 1338.92 205.802 1339.66 206.173C1340.11 206.397 1340.6 206.396 1341.02 206.233C1341.37 206.093 1341.61 205.865 1341.74 205.719C1341.99 205.43 1342.16 205.079 1342.28 204.822C1342.52 204.266 1342.74 203.537 1342.92 202.852C1343.11 202.15 1343.28 201.415 1343.42 200.818L1343.48 200.572L1343.48 200.571L1343.48 200.57C1343.59 200.073 1343.66 199.756 1343.7 199.629C1345.42 193.906 1347.53 188.51 1349.79 182.904ZM1295.28 149.452H1295.28H1295.28C1304.56 148.391 1313.88 147.326 1323.36 147.326C1324.19 147.326 1324.86 147.997 1324.86 148.826C1324.86 149.654 1324.19 150.326 1323.36 150.326C1314.07 150.326 1304.97 151.365 1295.71 152.423C1293.21 152.709 1290.69 152.996 1288.16 153.264C1285.57 153.538 1282.97 153.723 1280.39 153.905L1280.39 153.905C1279.8 153.948 1279.2 153.99 1278.6 154.034C1275.43 154.264 1272.31 154.524 1269.22 154.977C1268.83 155.034 1268.5 155.073 1268.22 155.091C1267.97 155.107 1267.66 155.116 1267.37 155.061C1267.23 155.035 1266.95 154.97 1266.67 154.773C1266.33 154.531 1266 154.087 1266 153.485C1266 153.003 1266.22 152.665 1266.32 152.531C1266.43 152.372 1266.55 152.255 1266.64 152.183C1266.93 151.925 1267.37 151.676 1267.68 151.502C1267.86 151.401 1268.02 151.315 1268.17 151.231L1268.17 151.231C1268.36 151.129 1268.53 151.031 1268.73 150.918C1269.45 150.507 1270.37 150.757 1270.78 151.476C1270.83 151.558 1270.86 151.642 1270.89 151.727C1273.4 151.424 1275.9 151.222 1278.38 151.041C1278.99 150.997 1279.6 150.954 1280.2 150.911C1282.77 150.729 1285.32 150.549 1287.85 150.281C1290.32 150.018 1292.8 149.735 1295.27 149.452L1295.28 149.452ZM1308.33 96.5703C1307.59 96.1998 1306.69 96.5001 1306.32 97.2411C1305.95 97.9821 1306.25 98.8831 1306.99 99.2536C1308.36 99.9356 1309.31 100.885 1310.17 102.056C1310.6 102.651 1311.01 103.293 1311.44 103.995C1311.52 104.116 1311.59 104.239 1311.67 104.364C1312.03 104.95 1312.41 105.573 1312.83 106.192C1314.45 108.623 1316.3 110.883 1318.09 113.073L1318.09 113.074C1318.49 113.557 1318.88 114.037 1319.27 114.514C1321.44 117.189 1323.46 119.829 1325 122.79C1325.38 123.524 1326.29 123.809 1327.02 123.426C1327.76 123.043 1328.04 122.137 1327.66 121.402C1325.97 118.158 1323.79 115.322 1321.6 112.625C1321.19 112.121 1320.78 111.624 1320.38 111.13C1318.59 108.945 1316.85 106.824 1315.32 104.528C1314.94 103.96 1314.6 103.394 1314.24 102.81L1314.24 102.81C1314.16 102.681 1314.08 102.551 1314 102.421C1313.56 101.712 1313.1 100.98 1312.58 100.279C1311.54 98.8587 1310.25 97.5285 1308.33 96.5703Z" fill="#FD9E68"/>
<rect x="382.993" y="81.2196" width="10" height="58" rx="2.5" transform="rotate(-25 382.993 81.2196)" stroke="#FF89E5" stroke-width="3"/>
<circle cx="1051.5" cy="143.5" r="7.5" fill="#FF9999"/>
<circle cx="648.5" cy="560.273" r="7.5" fill="#C8B8EA"/>
<circle cx="48.5" cy="471.5" r="7.5" fill="#FFB2B2"/>
<circle cx="1550.5" cy="288.5" r="7.5" fill="#D4FFB2"/>
<circle cx="633.5" cy="59.5" r="7.5" fill="#B2FFFA"/>
<circle cx="947.5" cy="559.5" r="7.5" fill="#B2F1FF"/>
<circle cx="224.5" cy="296.273" r="4.5" fill="#99FFED"/>
<circle cx="1426.5" cy="51.2734" r="4.5" fill="#A799FF"/>
<circle cx="992.5" cy="251.5" r="4.5" fill="#FFFB99"/>
<circle cx="85.5" cy="121.5" r="4.5" fill="#C6FF99"/>
<circle cx="396" cy="457.773" r="8" fill="#FDFF99"/>
<circle cx="1274" cy="407.773" r="8" fill="#99FFF9"/>
<path d="M212.271 395.338C214.295 391.446 216.166 387.045 216.037 382.584C215.925 378.723 211.333 378.03 208.318 377.307C206.23 376.807 199.646 376.305 198.66 373.802C197.753 371.5 201.776 368.02 202.553 366.112C206.078 357.447 179.154 358.971 184.163 351.319C185.649 349.05 187.475 347.601 185.535 344.946C183.767 342.526 180.689 341.278 178 340.136" stroke="#484848" stroke-width="2" stroke-linecap="round"/>
<path d="M193.334 536.396L217.155 553.703C218.089 554.382 217.938 555.818 216.883 556.287L189.984 568.264C188.929 568.733 187.762 567.885 187.882 566.736L190.96 537.453C191.081 536.304 192.399 535.717 193.334 536.396Z" stroke="#92E5FF" stroke-width="3"/>
</svg>
